<?xml version="1.0" encoding="iso-8859-1"?>
<!-- Generator: Adobe Illustrator 19.0.0, SVG Export Plug-In . SVG Version: 6.00 Build 0)  -->
<svg xmlns="http://www.w3.org/2000/svg" xmlns:xlink="http://www.w3.org/1999/xlink" version="1.1" id="Capa_1" x="0px" y="0px" viewBox="0 0 512 512" style="enable-background:new 0 0 512 512;" xml:space="preserve" width="512px" height="512px">
<g>
	<g>
		<path d="M256.604,67.16c-16.164,0-29.314,13.151-29.314,29.314c0,16.163,13.15,29.313,29.314,29.313s29.313-13.15,29.313-29.313    C285.916,80.31,272.768,67.16,256.604,67.16z M256.603,110.786c-7.892,0-14.313-6.42-14.313-14.312    c0-7.892,6.42-14.313,14.313-14.313c7.892,0.001,14.312,6.421,14.312,14.313C270.914,104.365,264.494,110.786,256.603,110.786z" fill="#e68a00"/>
	</g>
</g>
<g>
	<g>
		<path d="M431.405,330.567c-16.164,0-29.314,13.15-29.314,29.314c0,16.163,13.15,29.313,29.314,29.313    c16.164,0,29.314-13.15,29.314-29.313C460.719,343.717,447.569,330.567,431.405,330.567z M431.405,374.193    c-7.893,0-14.313-6.42-14.313-14.312c0-7.892,6.42-14.313,14.313-14.313c7.892,0,14.313,6.42,14.313,14.313    C445.718,367.772,439.298,374.193,431.405,374.193z" fill="#e68a00"/>
	</g>
</g>
<g>
	<g>
		<path d="M80.595,330.567c-16.163,0-29.314,13.15-29.314,29.314c0,16.163,13.15,29.313,29.314,29.313    c16.164,0,29.314-13.15,29.314-29.313C109.908,343.717,96.758,330.567,80.595,330.567z M80.595,374.193    c-7.892,0-14.313-6.42-14.313-14.312c0-7.892,6.42-14.313,14.313-14.313c7.893,0,14.313,6.42,14.313,14.313    C94.907,367.772,88.486,374.193,80.595,374.193z" fill="#e68a00"/>
	</g>
</g>
<g>
	<g>
		<path d="M450.696,309.45c-4.026-0.99-8.085,1.47-9.074,5.493c-0.988,4.022,1.471,8.084,5.493,9.074    c29.37,7.218,49.883,33.408,49.883,63.687c0,20.89-9.829,39.517-25.092,51.538v-21.157c0-13.454-10.945-24.398-24.398-24.398    h-32.206c-13.454,0-24.398,10.946-24.398,24.398v21.158c-15.263-12.021-25.093-30.648-25.093-51.539    c0-30.182,20.444-56.45,49.883-63.687c4.022-0.989,6.481-5.051,5.493-9.074c-0.988-4.022-5.05-6.483-9.074-5.493    c-7.416,1.823-14.364,4.644-20.736,8.275l-84.741-130.27c14.849-11.781,24.665-28.082,28.565-45.357    c0.911-4.041-1.625-8.055-5.665-8.968c-4.044-0.912-8.055,1.625-8.969,5.665c-3.375,14.96-11.919,27.842-23.461,36.931v-21.05    c0-13.454-10.945-24.398-24.398-24.398h-32.207c-13.454,0-24.398,10.946-24.398,24.398v21.157    c-15.263-12.021-25.092-30.648-25.092-51.538c0-36.169,29.426-65.594,65.594-65.594c29.687,0,55.748,20.015,63.379,48.672    c1.066,4.003,5.173,6.382,9.178,5.318c4.003-1.066,6.384-5.174,5.317-9.178c-9.377-35.217-41.398-59.814-77.874-59.814    c-44.441,0-80.595,36.154-80.595,80.595c0,25.464,11.884,48.192,30.381,62.972L120.822,317.91    c-11.849-6.855-25.581-10.802-40.226-10.802C36.154,307.109,0,343.263,0,387.703c0,44.41,36.178,80.595,80.595,80.595    c40.195,0,73.432-29.565,79.565-67.782H351.84c6.037,37.625,38.749,67.782,79.565,67.782c44.295,0,80.595-36.07,80.595-80.595    C512,350.5,486.791,318.321,450.696,309.45z M231.101,154.676L231.101,154.676c0.001-5.182,4.217-9.398,9.399-9.398h32.207    c5.182,0,9.398,4.216,9.398,9.398v29.953c-8.142,3.482-16.788,5.261-25.502,5.261c-9.04,0-17.658-1.838-25.502-5.16V154.676z     M256.604,284.96c8.025,0,14.556,6.529,14.556,14.556s-6.529,14.556-14.556,14.556s-14.556-6.529-14.556-14.556    S248.578,284.96,256.604,284.96z M55.094,448.136v-30.054c0-5.182,4.216-9.398,9.398-9.398h32.206    c5.182,0,9.398,4.216,9.398,9.398v30.054h0.001C89.856,455.016,71.358,455.026,55.094,448.136z M121.097,439.242v-21.157    c0-13.454-10.945-24.398-24.398-24.398H64.492c-13.454,0-24.398,10.946-24.398,24.398v21.158    c-15.264-12.022-25.093-30.648-25.093-51.539c0-36.169,29.426-65.594,65.594-65.594c36.168,0,65.594,29.425,65.594,65.594    C146.189,408.594,136.36,427.221,121.097,439.242z M133.061,326.603l85.863-131.091c9.293,4.939,19.241,8.034,30.179,9.037v66.379    c-12.677,3.328-22.056,14.883-22.056,28.59c0,1.709,0.154,3.382,0.434,5.012l-77.048,43.028    C145.854,339.623,139.967,332.541,133.061,326.603z M350.857,385.515H161.134c-0.228-8.482-1.766-16.639-4.43-24.278    l77.032-43.019c5.424,6.62,13.661,10.855,22.868,10.855c9.085,0,17.222-4.123,22.648-10.593l76.008,42.716    C352.598,368.874,351.083,377.055,350.857,385.515z M285.663,304.876c0.32-1.74,0.496-3.529,0.496-5.36    c0-13.707-9.38-25.262-22.056-28.59v-66.379c10.721-0.979,20.456-3.939,29.954-8.918l85.026,130.707    c-7.038,5.995-12.976,13.163-17.571,21.165L285.663,304.876z M456.906,448.136c-7.843,3.322-16.462,5.16-25.502,5.16    c-9.04,0-17.657-1.838-25.501-5.16v-30.053h0.001c0-5.182,4.216-9.398,9.398-9.398h32.206c5.182,0,9.398,4.216,9.398,9.398    V448.136z" fill="#e68a00"/>
	</g>
</g>
<g>
</g>
<g>
</g>
<g>
</g>
<g>
</g>
<g>
</g>
<g>
</g>
<g>
</g>
<g>
</g>
<g>
</g>
<g>
</g>
<g>
</g>
<g>
</g>
<g>
</g>
<g>
</g>
<g>
</g>
</svg>
